<?xml version="1.0" encoding="utf-8"?>
<!-- Generator: Adobe Illustrator 28.0.0, SVG Export Plug-In . SVG Version: 6.00 Build 0)  -->
<svg version="1.1" id="Layer_1" xmlns="http://www.w3.org/2000/svg" xmlns:xlink="http://www.w3.org/1999/xlink" x="0px" y="0px"
	 viewBox="0 0 576.4 163.1" style="enable-background:new 0 0 576.4 163.1;" xml:space="preserve">
<style type="text/css">
	.st0{fill:#101820;}
</style>
<g>
	<g>
		<g>
			<path class="st0" d="M35.7,82.4c-1.4,0-2.5-1.1-2.5-2.4V42.4c0-1.3,1.1-2.4,2.5-2.4h7.4c1.4,0,2.7,1,3.1,2.4l4.1,15.8
				c0.9,3.4,1.4,6.4,1.6,9.7H52c0.2-3.7,0.7-6.3,1.5-9.7l3.7-15.8c0.3-1.4,1.6-2.4,3-2.4h8.1c1.4,0,2.5,1.1,2.5,2.4v37.6
				c0,1.3-1.1,2.4-2.5,2.4h-4c-1.4,0-2.5-1.1-2.5-2.4V63.9c0-7,0.4-12.9,0.6-16h-0.1c-0.4,3.4-1.7,10-3,14.6l-3,10.5
				c-0.4,1.4-1.7,2.4-3.2,2.4h-3.5c-1.4,0-2.8-1-3.2-2.3l-2.9-10c-1.4-4.9-2.5-11.9-3-15.2h-0.1c0.2,3.2,0.7,10.2,0.7,16.2v15.9
				c0,1.3-1.1,2.4-2.5,2.4H35.7z"/>
			<path class="st0" d="M88.3,82.4c-1.2,0-2.2-1.2-1.8-2.3l11-37.8c0.4-1.3,1.7-2.3,3.2-2.3h4.7c1.4,0,2.7,1,3.1,2.4L118.9,80
				c0.3,1.2-0.6,2.4-1.9,2.4h-4.9c-1.4,0-2.7-1-3-2.4l-1.4-6.2H97.5L95.9,80c-0.3,1.4-1.6,2.4-3,2.4H88.3z M101,59.7l-1.8,7.1h6.8
				l-1.7-7.1c-0.9-3.8-1.3-6.7-1.6-8.9h-0.1C102.4,53.2,102,55.9,101,59.7z"/>
			<path class="st0" d="M134.2,82.4c-1.4,0-2.5-1.1-2.5-2.4V42.4c0-1.3,1.1-2.4,2.5-2.4h11.1c11.1,0,15.2,4.3,15.2,12.2
				c0,7-2.7,9.7-7.7,11.1c2.8,0.9,4.4,3.5,5.6,7.7l2.7,9.2c0.3,1.2-0.6,2.3-1.8,2.3h-5c-1.4,0-2.8-1-3.2-2.4l-2.7-9.7
				c-1.2-4.3-2.2-5.2-5.5-5.2h-1.9v14.8c0,1.3-1.1,2.4-2.5,2.4H134.2z M141.1,58.3h4.6c3.8,0,5-1.8,5-5.7c0-3.6-1.4-4.9-5-4.9h-4.5
				V58.3z"/>
			<path class="st0" d="M192,83.2c-11.9,0-17.4-6.6-17.4-21.9c0-16.4,6.2-22.1,17.2-22.1c3.7,0,6.8,0.7,9.1,2
				c1.2,0.6,1.7,2.1,1.1,3.2l-1.4,2.7c-0.6,1.2-2.1,1.6-3.3,1c-1.5-0.7-3.1-1.2-4.9-1.2c-6,0-7.4,2.7-7.4,13.8
				c0,11.8,2.2,14.7,7.5,14.7c2.1,0,3.9-0.5,5.3-1.5c1.1-0.7,2.7-0.3,3.4,0.8l1.4,2.4c0.7,1.2,0.4,2.7-0.7,3.5
				C199.4,82.1,196.4,83.2,192,83.2z"/>
			<path class="st0" d="M235.7,82.4c-1.4,0-2.1-1.1-1.5-2.3L253,42.3c0.7-1.5,2.1-2.3,3.8-2.3h4.1c1.6,0,2.7,1,2.7,2.6l2.1,37.3
				c0.1,1.5-0.9,2.6-2.4,2.6h-3.9c-1.6,0-2.6-1-2.7-2.6l-0.2-6.1h-10.3l-2.9,6.3c-0.7,1.5-2,2.3-3.7,2.3H235.7z M249.3,67h7.2
				l-0.2-7.6c-0.1-4.2,0.1-8.5,0.3-10.6c-0.6,2.2-1.7,5.9-3.6,10.1L249.3,67z"/>
			<path class="st0" d="M285.3,82.4c-1.4,0-2.5-1.1-2.5-2.4V42.4c0-1.3,1.1-2.4,2.5-2.4h3.9c1.5,0,2.9,0.9,3.5,2.2l7.9,16.6
				c1.5,3.1,2.9,7,3.7,9.8h0.1c-0.3-2.6-0.9-7.4-0.9-11.3V42.4c0-1.3,1.1-2.4,2.5-2.4h3.4c1.4,0,2.5,1.1,2.5,2.4v37.6
				c0,1.3-1.1,2.4-2.5,2.4H305c-1.4,0-2.8-0.8-3.4-2.1l-7.4-16.1c-1.8-3.9-3-7.3-4-10.1h-0.1c0.2,2.1,1.1,7.1,1.1,12.4v13.6
				c0,1.3-1.1,2.4-2.5,2.4H285.3z"/>
			<path class="st0" d="M338.3,82.4c-1.4,0-2.5-1.1-2.5-2.4V47.8h-6.8c-1.4,0-2.5-1.1-2.5-2.4v-2.9c0-1.3,1.1-2.4,2.5-2.4h22.9
				c1.4,0,2.5,1.1,2.5,2.4v2.9c0,1.3-1.1,2.4-2.5,2.4H345v32.2c0,1.3-1.1,2.4-2.5,2.4H338.3z"/>
			<path class="st0" d="M370.1,82.4c-1.4,0-2.5-1.1-2.5-2.4V42.4c0-1.3,1.1-2.4,2.5-2.4h4.4c1.4,0,2.5,1.1,2.5,2.4v13.7h10.3V42.4
				c0-1.3,1.1-2.4,2.5-2.4h4.4c1.4,0,2.5,1.1,2.5,2.4v37.6c0,1.3-1.1,2.4-2.5,2.4h-4.4c-1.4,0-2.5-1.1-2.5-2.4V63.9h-10.3v16.1
				c0,1.3-1.1,2.4-2.5,2.4H370.1z"/>
			<path class="st0" d="M428,83.2c-11.4,0-17.2-6.5-17.2-21.9s5.8-22.1,17.2-22.1c11.3,0,17,6.6,17,22
				C445.1,76.7,439.5,83.2,428,83.2z M427.9,75.8c5.4,0,7-3.6,7-14.7c0-11-1.7-14.5-7-14.5c-5.3,0-7,3.5-7,14.5
				C420.9,72.2,422.6,75.8,427.9,75.8z"/>
			<path class="st0" d="M463,82.4c-1.4,0-2.5-1.1-2.5-2.4V42.4c0-1.3,1.1-2.4,2.5-2.4h3.9c1.5,0,2.9,0.9,3.5,2.2l7.9,16.6
				c1.5,3.1,2.9,7,3.7,9.8h0.1c-0.3-2.6-0.9-7.4-0.9-11.3V42.4c0-1.3,1.1-2.4,2.5-2.4h3.4c1.4,0,2.5,1.1,2.5,2.4v37.6
				c0,1.3-1.1,2.4-2.5,2.4h-4.4c-1.4,0-2.8-0.8-3.4-2.1L472,64.1c-1.8-3.9-3-7.3-4-10.1H468c0.2,2.1,1.1,7.1,1.1,12.4v13.6
				c0,1.3-1.1,2.4-2.5,2.4H463z"/>
			<path class="st0" d="M517.1,82.4c-1.4,0-2.5-1.1-2.5-2.4V64.4l-10.5-22.2c-0.5-1,0.2-2.2,1.4-2.2h5.3c1.5,0,2.9,0.9,3.4,2.3
				l3,7.1c1.1,2.8,1.8,4.9,2.3,7.5c0.6-2.6,1.2-4.8,2.2-7.3l3.1-7.3c0.6-1.3,1.9-2.3,3.4-2.3h4.9c1.2,0,1.9,1.2,1.4,2.2l-10.8,22
				v15.8c0,1.3-1.1,2.4-2.5,2.4H517.1z"/>
			<path class="st0" d="M533.7,78c0-1.3,0.5-2.4,1.4-3.3c0.9-0.9,2-1.4,3.3-1.4c1.3,0,2.4,0.5,3.3,1.4c0.9,0.9,1.4,2,1.4,3.3
				s-0.5,2.4-1.4,3.3c-0.9,0.9-2,1.4-3.3,1.4c-1.3,0-2.4-0.5-3.3-1.4C534.2,80.3,533.7,79.2,533.7,78z M534.9,78c0,1,0.3,1.8,1,2.4
				c0.7,0.7,1.5,1,2.5,1c0.9,0,1.8-0.3,2.5-1c0.7-0.7,1-1.5,1-2.4s-0.3-1.8-1-2.4c-0.7-0.7-1.5-1-2.5-1c-1,0-1.8,0.3-2.5,1
				C535.3,76.2,534.9,77,534.9,78z M538.9,75.6c1,0,1.7,0.6,1.7,1.6c0,0.7-0.3,1.2-1,1.4l0.8,1.2c0.2,0.3,0.1,0.4-0.2,0.4h-0.5
				c-0.2,0-0.4-0.1-0.5-0.2l-0.8-1.3h-0.7V80c0,0.2-0.1,0.3-0.3,0.3h-0.5c-0.2,0-0.3-0.1-0.3-0.3v-4.1c0-0.3,0.1-0.3,0.3-0.3H538.9z
				 M537.7,77.8h1.1c0.4,0,0.6-0.2,0.6-0.6c0-0.4-0.2-0.5-0.6-0.5h-1.1V77.8z"/>
		</g>
	</g>
	<g>
		<path class="st0" d="M126.4,102.3l0,1.3c0,0.7-0.2,0.9-0.9,0.9l-4.7,0l0,15.2c0,0.7-0.2,0.9-0.9,0.9l-1.6,0
			c-0.7,0-0.9-0.2-0.9-0.9l0-15.2l-4.7,0c-0.7,0-0.9-0.2-0.9-0.9l0-1.3c0-0.7,0.2-0.9,0.9-0.9l12.8,0
			C126.2,101.4,126.4,101.6,126.4,102.3z"/>
		<path class="st0" d="M147.7,107.3c0,2.8-1.3,4.7-3.6,5.5c0.4,0.3,0.6,0.7,0.9,1.2l3,5.7c0.3,0.5,0.2,0.9-0.5,0.9l-1.6,0
			c-1.2,0-1.5-0.1-1.9-0.8l-2.3-4.6c-0.7-1.5-1.4-1.9-3.2-1.9l-2,0l0,6.4c0,0.7-0.2,0.9-0.9,0.9l-1.6,0c-0.7,0-1-0.2-1-0.9l0-17.5
			c0-0.7,0.2-0.9,1-0.9l7.5,0C145.3,101.3,147.6,103.6,147.7,107.3z M141.2,104.5l-4.7,0l0,5.6l4.7,0c1.8,0,2.9-1,2.9-2.8
			C144.1,105.5,143.1,104.5,141.2,104.5z"/>
		<path class="st0" d="M162.6,117.8c2.8,0,4.2-1.4,4.2-3.9l0-11.8c0-0.7,0.2-0.9,0.9-0.9l1.6,0c0.7,0,0.9,0.2,0.9,0.9l0,11.8
			c0,4.3-2.6,7.1-7.6,7.1s-7.6-2.8-7.6-7l0-11.8c0-0.7,0.2-0.9,0.9-0.9l1.6,0c0.7,0,0.9,0.2,0.9,0.9l0,11.8
			C158.4,116.4,159.8,117.8,162.6,117.8z"/>
		<path class="st0" d="M190.9,102.1l0,1.3c0,0.7-0.2,0.9-1,0.9l-8.3,0l0,4.8l7,0c0.7,0,0.9,0.2,0.9,0.9l0,1.3c0,0.7-0.2,0.9-0.9,0.9
			l-7,0l0,5l8.6,0c0.7,0,0.9,0.2,0.9,0.9l0,1.3c0,0.7-0.2,0.9-0.9,0.9l-11.1,0c-0.7,0-1-0.2-1-0.9l0-17.5c0-0.7,0.2-0.9,1-0.9
			l10.8,0C190.7,101.2,190.9,101.4,190.9,102.1z"/>
		<path class="st0" d="M223.2,107.4c0,3.9-2.5,6.3-6.4,6.3l-4.7,0l0,5.8c0,0.7-0.2,0.9-0.9,0.9l-1.6,0c-0.7,0-1-0.2-1-0.9l0-17.5
			c0-0.7,0.2-0.9,1-0.9l7.2,0C220.7,101.1,223.2,103.5,223.2,107.4z M219.6,107.4c0-2-1.2-3.1-3.2-3.1l-4.4,0l0,6.2l4.4,0
			C218.5,110.5,219.7,109.4,219.6,107.4z"/>
		<path class="st0" d="M244.8,107c0,2.8-1.3,4.7-3.6,5.5c0.4,0.3,0.6,0.7,0.9,1.2l3,5.7c0.3,0.5,0.2,0.9-0.5,0.9l-1.6,0
			c-1.2,0-1.5-0.1-1.9-0.8l-2.3-4.6c-0.7-1.5-1.4-1.9-3.2-1.9l-2,0l0,6.4c0,0.7-0.2,0.9-0.9,0.9l-1.6,0c-0.7,0-1-0.2-1-0.9l0-17.5
			c0-0.7,0.2-0.9,1-0.9l7.5,0C242.4,101,244.8,103.3,244.8,107z M238.3,104.2l-4.7,0l0,5.6l4.7,0c1.8,0,2.9-1,2.9-2.8
			C241.2,105.2,240.2,104.2,238.3,104.2z"/>
		<path class="st0" d="M259.5,100.6c5,0,7.8,2.7,7.8,7.1l0,5.9c0,4.4-2.8,7.1-7.7,7.1c-5,0-7.8-2.7-7.8-7.1l0-5.9
			C251.7,103.3,254.5,100.6,259.5,100.6z M259.5,103.8c-2.8,0-4.4,1.4-4.3,3.9l0,6c0,2.5,1.6,3.9,4.4,3.9c2.8,0,4.4-1.4,4.3-3.9l0-6
			C263.9,105.1,262.3,103.8,259.5,103.8z"/>
		<path class="st0" d="M287.5,101.8l0,1.3c0,0.7-0.2,0.9-1,0.9l-8.3,0l0,5l7,0c0.7,0,1,0.2,1,0.9l0,1.3c0,0.7-0.2,0.9-1,0.9l-7,0
			l0,7c0,0.7-0.2,0.9-0.9,0.9l-1.6,0c-0.7,0-1-0.2-1-0.9l0-17.5c0-0.7,0.2-0.9,1-0.9l10.8,0C287.3,100.9,287.5,101.1,287.5,101.8z"
			/>
		<path class="st0" d="M307.3,101.8l0,1.3c0,0.7-0.2,0.9-1,0.9l-8.3,0l0,4.8l7,0c0.7,0,0.9,0.2,0.9,0.9l0,1.3c0,0.7-0.2,0.9-0.9,0.9
			l-7,0l0,5l8.6,0c0.7,0,0.9,0.2,0.9,0.9l0,1.3c0,0.7-0.2,0.9-0.9,0.9l-11.1,0c-0.7,0-1-0.2-1-0.9l0-17.5c0-0.7,0.2-0.9,1-0.9
			l10.8,0C307,100.8,307.3,101.1,307.3,101.8z"/>
		<path class="st0" d="M321.4,100.4c3.9,0,5.9,1.4,7.2,4.1c0.3,0.6,0.1,1-0.5,1.3l-1.5,0.7c-0.6,0.3-0.8,0.2-1.2-0.5
			c-0.7-1.4-1.8-2.3-4-2.3c-2.6,0-3.9,0.8-3.9,2.5c0,2,2.2,2.3,4.7,2.6c3.2,0.3,6.9,1.1,6.9,5.7c0,3.6-2.7,6.1-7.7,6.1
			c-4.2,0-6.4-1.6-7.5-4.5c-0.2-0.7-0.1-1,0.6-1.2l1.5-0.5c0.6-0.2,0.9-0.1,1.2,0.6c0.7,1.6,2.1,2.5,4.3,2.5c2.8,0,4.3-0.9,4.3-2.8
			c0-1.9-2-2.3-4.3-2.5c-3.3-0.3-7.4-0.8-7.4-5.6C314,102.9,316.5,100.4,321.4,100.4z"/>
		<path class="st0" d="M343,100.3c3.9,0,5.9,1.4,7.2,4.1c0.3,0.6,0.1,1-0.5,1.3l-1.5,0.7c-0.6,0.3-0.8,0.2-1.2-0.5
			c-0.7-1.4-1.8-2.3-4-2.3c-2.6,0-3.9,0.8-3.9,2.5c0,2,2.2,2.3,4.7,2.6c3.2,0.3,6.9,1.1,6.9,5.7c0,3.6-2.7,6.1-7.7,6.1
			c-4.2,0-6.4-1.6-7.5-4.5c-0.2-0.7-0.1-1,0.6-1.2l1.5-0.5c0.6-0.2,0.9-0.1,1.2,0.6c0.7,1.6,2.1,2.5,4.3,2.5c2.8,0,4.3-0.9,4.3-2.8
			c0-1.9-2-2.3-4.3-2.5c-3.3-0.3-7.4-0.8-7.4-5.6C335.5,102.8,338.1,100.3,343,100.3z"/>
		<path class="st0" d="M358.8,100.7l1.6,0c0.7,0,0.9,0.2,0.9,0.9l0,17.5c0,0.7-0.2,0.9-0.9,0.9l-1.6,0c-0.7,0-1-0.2-1-0.9l0-17.5
			C357.8,100.9,358.1,100.7,358.8,100.7z"/>
		<path class="st0" d="M376.6,100.2c5,0,7.8,2.7,7.8,7.1l0,5.9c0,4.4-2.8,7.1-7.7,7.1c-5,0-7.8-2.7-7.8-7.1l0-5.9
			C368.8,103,371.6,100.2,376.6,100.2z M376.6,103.4c-2.8,0-4.4,1.4-4.3,3.9l0,6c0,2.5,1.6,3.9,4.4,3.9c2.8,0,4.4-1.4,4.3-3.9l0-6
			C381,104.7,379.4,103.4,376.6,103.4z"/>
		<path class="st0" d="M407.1,101.5l0,17.5c0,0.7-0.2,0.9-0.9,0.9l-1.6,0c-0.5,0-0.7-0.1-0.9-0.5l-6.7-9.8c-1.3-1.9-2.1-4.4-2.2-4.6
			h-0.2c0,0.2,0.6,2.8,0.6,5.4l0,8.5c0,0.7-0.2,0.9-0.9,0.9l-1.4,0c-0.7,0-1-0.2-1-0.9l0-17.5c0-0.7,0.2-0.9,1-0.9l1.6,0
			c0.5,0,0.7,0.2,0.9,0.4l6.6,9.8c1.4,2.1,2.2,4.4,2.3,4.6l0.2,0c0-0.3-0.6-2.7-0.6-5.5l0-8.4c0-0.7,0.2-0.9,0.9-0.9l1.4,0
			C406.9,100.5,407.1,100.8,407.1,101.5z"/>
		<path class="st0" d="M430.4,119.8l-1.4,0c-1.1,0-1.5-0.2-1.7-0.8l-1.3-3.5l-7.5,0l-1.3,3.5c-0.2,0.7-0.5,0.8-1.7,0.8l-1.3,0
			c-0.7,0-0.8-0.3-0.6-0.9l6.8-17.7c0.2-0.6,0.5-0.8,1.1-0.8l1.4,0c0.6,0,0.9,0.1,1.1,0.7l6.8,17.7
			C431.2,119.5,431,119.8,430.4,119.8z M422.3,103.6l-0.2,0c0,0,0,1.6-0.6,3.3l-2.1,5.8l5.6,0l-2.1-5.7
			C422.4,105.2,422.3,103.6,422.3,103.6z"/>
		<path class="st0" d="M440.9,101.3l0,15.2l7.8,0c0.7,0,0.9,0.2,0.9,0.9l0,1.3c0,0.7-0.2,0.9-0.9,0.9l-10.3,0c-0.7,0-1-0.2-1-0.9
			l0-17.5c0-0.7,0.2-0.9,1-0.9l1.6,0C440.7,100.4,440.9,100.7,440.9,101.3z"/>
	</g>
</g>
</svg>
